{
  "accessors": [
    {
      "bufferView": 2,
      "componentType": 5126,
      "count": 65534,
      "max": [
        0.24640896916389465,
        0.02687503769993782,
        0.24559414386749268
      ],
      "min": [
        -0.24619132280349731,
        -0.022479183971881866,
        -0.2462545782327652
      ],
      "type": "VEC3"
    },
    {
      "bufferView": 2,
      "byteOffset": 786408,
      "componentType": 5126,
      "count": 65534,
      "max": [
        0.99999916553497314,
        0.99999994039535522,
        0.99998658895492554
      ],
      "min": [
        -0.99999922513961792,
        -0.99999934434890747,
        -0.99998658895492554
      ],
      "type": "VEC3"
    },
    {
      "bufferView": 1,
      "componentType": 5126,
      "count": 65534,
      "max": [
        0.99991506338119507,
        0.9985116720199585
      ],
      "min": [
        0.00031260345713235438,
        0.0014889138983562589
      ],
      "type": "VEC2"
    },
    {
      "bufferView": 0,
      "componentType": 5125,
      "count": 84150,
      "max": [
        65533
      ],
      "min": [
        0
      ],
      "type": "SCALAR"
    },
    {
      "bufferView": 2,
      "byteOffset": 1572816,
      "componentType": 5126,
      "count": 65532,
      "max": [
        0.24634891748428345,
        0.02687503769993782,
        0.24559414386749268
      ],
      "min": [
        -0.24619132280349731,
        -0.022563319653272629,
        -0.24609261751174927
      ],
      "type": "VEC3"
    },
    {
      "bufferView": 2,
      "byteOffset": 2359200,
      "componentType": 5126,
      "count": 65532,
      "max": [
        0.51773577928543091,
        0.99999940395355225,
        0.99998116493225098
      ],
      "min": [
        -0.72570884227752686,
        -0.99999922513961792,
        -0.99999856948852539
      ],
      "type": "VEC3"
    },
    {
      "bufferView": 1,
      "byteOffset": 524272,
      "componentType": 5126,
      "count": 65532,
      "max": [
        0.97021782398223877,
        0.99849593639373779
      ],
      "min": [
        0.015574047341942787,
        0.0094527136534452438
      ],
      "type": "VEC2"
    },
    {
      "bufferView": 0,
      "byteOffset": 336600,
      "componentType": 5125,
      "count": 65532,
      "max": [
        65531
      ],
      "min": [
        0
      ],
      "type": "SCALAR"
    },
    {
      "bufferView": 2,
      "byteOffset": 3145584,
      "componentType": 5126,
      "count": 65533,
      "max": [
        0.24640896916389465,
        0.026777280494570732,
        0.24543225765228271
      ],
      "min": [
        -0.24615129828453064,
        -0.022563319653272629,
        -0.24633568525314331
      ],
      "type": "VEC3"
    },
    {
      "bufferView": 2,
      "byteOffset": 3931980,
      "componentType": 5126,
      "count": 65533,
      "max": [
        0.99999922513961792,
        0.99999880790710449,
        0.99998658895492554
      ],
      "min": [
        -0.99999910593032837,
        -0.99999946355819702,
        -0.99998658895492554
      ],
      "type": "VEC3"
    },
    {
      "bufferView": 1,
      "byteOffset": 1048528,
      "componentType": 5126,
      "count": 65533,
      "max": [
        0.99997186660766602,
        0.99851101636886597
      ],
      "min": [
        4.5745498937321827e-05,
        0.0014883509138599038
      ],
      "type": "VEC2"
    },
    {
      "bufferView": 0,
      "byteOffset": 598728,
      "componentType": 5125,
      "count": 86949,
      "max": [
        65532
      ],
      "min": [
        0
      ],
      "type": "SCALAR"
    },
    {
      "bufferView": 2,
      "byteOffset": 4718376,
      "componentType": 5126,
      "count": 3831,
      "max": [
        0.24626117944717407,
        0.026196060702204704,
        0.21917423605918884
      ],
      "min": [
        -0.24581882357597351,
        -0.022438144311308861,
        -0.08622431755065918
      ],
      "type": "VEC3"
    },
    {
      "bufferView": 2,
      "byteOffset": 4764348,
      "componentType": 5126,
      "count": 3831,
      "max": [
        0.99999898672103882,
        0.0053490041755139828,
        0.99998652935028076
      ],
      "min": [
        -0.99999803304672241,
        -0.0053470958955585957,
        -0.99998652935028076
      ],
      "type": "VEC3"
    },
    {
      "bufferView": 1,
      "byteOffset": 1572792,
      "componentType": 5126,
      "count": 3831,
      "max": [
        0.99989312887191772,
        0.99851047992706299
      ],
      "min": [
        0.0010650651529431343,
        0.021593354642391205
      ],
      "type": "VEC2"
    },
    {
      "bufferView": 0,
      "byteOffset": 946524,
      "componentType": 5125,
      "count": 5745,
      "max": [
        3830
      ],
      "min": [
        0
      ],
      "type": "SCALAR"
    },
    {
      "bufferView": 3,
      "componentType": 5126,
      "count": 321,
      "max": [
        6.6666665077209473
      ],
      "min": [
        0
      ],
      "type": "SCALAR"
    },
    {
      "bufferView": 4,
      "componentType": 5126,
      "count": 321,
      "max": [
        0.50000005960464478,
        0.70710670948028564,
        0.7071068286895752,
        0.70710670948028564
      ],
      "min": [
        -0.7071068286895752,
        -0.49999994039535522,
        -0.5,
        -0.5
      ],
      "type": "VEC4"
    }
  ],
  "animations": [
    {
      "channels": [
        {
          "sampler": 0,
          "target": {
            "node": 5,
            "path": "rotation"
          }
        }
      ],
      "name": "16783_Zeus_v1_NEW.001|16783_Zeus_v1_NEW.001Action.003",
      "samplers": [
        {
          "input": 16,
          "interpolation": "LINEAR",
          "output": 17
        }
      ]
    }
  ],
  "asset": {
    "extras": {
      "author": "FranciscoDugarte (https://sketchfab.com/FranciscoDugarte)",
      "license": "CC-BY-NC-4.0 (http://creativecommons.org/licenses/by-nc/4.0/)",
      "source": "https://sketchfab.com/3d-models/bitcoin-free-model-551901abb50a4166abdf5f7c92311d37",
      "title": "BITCOIN - FREE MODEL"
    },
    "generator": "Sketchfab-9.85.0",
    "version": "2.0"
  },
  "bufferViews": [
    {
      "buffer": 0,
      "byteLength": 969504,
      "byteOffset": 0,
      "name": "floatBufferViews",
      "target": 34963
    },
    {
      "buffer": 0,
      "byteLength": 1603440,
      "byteOffset": 969504,
      "byteStride": 8,
      "name": "floatBufferViews",
      "target": 34962
    },
    {
      "buffer": 0,
      "byteLength": 4810320,
      "byteOffset": 2572944,
      "byteStride": 12,
      "name": "floatBufferViews",
      "target": 34962
    },
    {
      "buffer": 0,
      "byteLength": 1284,
      "byteOffset": 7383264,
      "name": "floatBufferViews"
    },
    {
      "buffer": 0,
      "byteLength": 5136,
      "byteOffset": 7384548,
      "byteStride": 16,
      "name": "floatBufferViews"
    }
  ],
  "buffers": [
    {
      "byteLength": 7389684,
      "uri": "scene.bin"
    }
  ],
  "images": [
    {
      "uri": "textures/oro2_baseColor.png"
    }
  ],
  "materials": [
    {
      "doubleSided": true,
      "emissiveFactor": [
        0,
        0,
        0
      ],
      "name": "oro2",
      "pbrMetallicRoughness": {
        "baseColorFactor": [
          1,
          1,
          1,
          1
        ],
        "baseColorTexture": {
          "index": 0,
          "texCoord": 0
        },
        "metallicFactor": 1,
        "roughnessFactor": 0.15869988635117183
      }
    }
  ],
  "meshes": [
    {
      "name": "16783_Zeus_v1_NEW.001_oro2_0",
      "primitives": [
        {
          "attributes": {
            "NORMAL": 1,
            "POSITION": 0,
            "TEXCOORD_0": 2
          },
          "indices": 3,
          "material": 0,
          "mode": 4
        }
      ]
    },
    {
      "name": "16783_Zeus_v1_NEW.001_oro2_0",
      "primitives": [
        {
          "attributes": {
            "NORMAL": 5,
            "POSITION": 4,
            "TEXCOORD_0": 6
          },
          "indices": 7,
          "material": 0,
          "mode": 4
        }
      ]
    },
    {
      "name": "16783_Zeus_v1_NEW.001_oro2_0",
      "primitives": [
        {
          "attributes": {
            "NORMAL": 9,
            "POSITION": 8,
            "TEXCOORD_0": 10
          },
          "indices": 11,
          "material": 0,
          "mode": 4
        }
      ]
    },
    {
      "name": "16783_Zeus_v1_NEW.001_oro2_0",
      "primitives": [
        {
          "attributes": {
            "NORMAL": 13,
            "POSITION": 12,
            "TEXCOORD_0": 14
          },
          "indices": 15,
          "material": 0,
          "mode": 4
        }
      ]
    }
  ],
  "nodes": [
    {
      "children": [
        1
      ],
      "name": "RootNode (gltf orientation matrix)",
      "rotation": [
        -0.70710678118654746,
        -0,
        -0,
        0.70710678118654757
      ]
    },
    {
      "children": [
        2
      ],
      "name": "RootNode (model correction matrix)"
    },
    {
      "children": [
        3
      ],
      "matrix": [
        1,
        0,
        0,
        0,
        0,
        0,
        1,
        0,
        0,
        -1,
        0,
        0,
        0,
        0,
        0,
        1
      ],
      "name": "69acf76723cd463ab3ccfb56def2e40f.fbx"
    },
    {
      "children": [
        4
      ],
      "name": ""
    },
    {
      "children": [
        5
      ],
      "name": "RootNode"
    },
    {
      "children": [
        6,
        7,
        8,
        9
      ],
      "name": "16783_Zeus_v1_NEW.001",
      "rotation": [
        -0.7071068286895752,
        0,
        0,
        0.70710670948028564
      ],
      "scale": [
        1096.736083984375,
        1096.736083984375,
        1096.736083984375
      ]
    },
    {
      "mesh": 0,
      "name": "16783_Zeus_v1_NEW.001_oro2_0"
    },
    {
      "mesh": 1,
      "name": "16783_Zeus_v1_NEW.001_oro2_0"
    },
    {
      "mesh": 2,
      "name": "16783_Zeus_v1_NEW.001_oro2_0"
    },
    {
      "mesh": 3,
      "name": "16783_Zeus_v1_NEW.001_oro2_0"
    }
  ],
  "samplers": [
    {
      "magFilter": 9729,
      "minFilter": 9987,
      "wrapS": 10497,
      "wrapT": 10497
    }
  ],
  "scene": 0,
  "scenes": [
    {
      "name": "OSG_Scene",
      "nodes": [
        0
      ]
    }
  ],
  "textures": [
    {
      "sampler": 0,
      "source": 0
    }
  ]
}

